<svg width="512" height="512" viewBox="0 0 512 512" fill="none" xmlns="http://www.w3.org/2000/svg">
  <rect width="512" height="512" rx="128" fill="#0A0E1A"/>
  <rect x="40" y="40" width="432" height="432" rx="104" fill="url(#bg)"/>
  <circle cx="382" cy="128" r="62" fill="url(#accent)" fill-opacity="0.9"/>
  <path d="M144 150C144 134.536 156.536 122 172 122H238C278.869 122 312 155.131 312 196V350C312 365.464 299.464 378 284 378H218C177.131 378 144 344.869 144 304V150Z" fill="#0A0E1A"/>
  <path d="M200 168C200 159.163 207.163 152 216 152H250C280.928 152 306 177.072 306 208V310C306 318.837 298.837 326 290 326H256C225.072 326 200 300.928 200 270V168Z" fill="url(#book)"/>
  <path d="M170 192C170 181.507 178.507 173 189 173H221C240.33 173 256 188.67 256 208V336C256 346.493 247.493 355 237 355H205C185.67 355 170 339.33 170 320V192Z" fill="#9BA8FF"/>
  <rect x="222" y="193" width="18" height="133" rx="9" fill="#D7DEFF"/>
  <rect x="178" y="219" width="48" height="10" rx="5" fill="#FFFFFF" fill-opacity="0.94"/>
  <rect x="178" y="247" width="54" height="10" rx="5" fill="#FFFFFF" fill-opacity="0.78"/>
  <rect x="178" y="275" width="42" height="10" rx="5" fill="#FFFFFF" fill-opacity="0.68"/>
  <defs>
    <linearGradient id="bg" x1="84" y1="66" x2="458" y2="450" gradientUnits="userSpaceOnUse">
      <stop stop-color="#15254A"/>
      <stop offset="0.54" stop-color="#111C37"/>
      <stop offset="1" stop-color="#0A0E1A"/>
    </linearGradient>
    <linearGradient id="accent" x1="330" y1="82" x2="441" y2="176" gradientUnits="userSpaceOnUse">
      <stop stop-color="#38BDF8"/>
      <stop offset="1" stop-color="#6378FF"/>
    </linearGradient>
    <linearGradient id="book" x1="204" y1="160" x2="318" y2="318" gradientUnits="userSpaceOnUse">
      <stop stop-color="#6378FF"/>
      <stop offset="1" stop-color="#A78BFA"/>
    </linearGradient>
  </defs>
</svg>
